<?xml version="1.0" encoding="UTF-8" standalone="no"?>
<!DOCTYPE svg PUBLIC "-//W3C//DTD SVG 1.1//EN"
 "http://www.w3.org/Graphics/SVG/1.1/DTD/svg11.dtd">
<!-- Generated by graphviz version 2.49.3 (20211023.0002)
 -->
<!-- Pages: 1 -->
<svg width="658pt" height="188pt"
 viewBox="0.00 0.00 657.50 188.00" xmlns="http://www.w3.org/2000/svg" xmlns:xlink="http://www.w3.org/1999/xlink">
<g id="graph0" class="graph" transform="scale(1 1) rotate(0) translate(4 184)">
<polygon fill="white" stroke="transparent" points="-4,4 -4,-184 653.5,-184 653.5,4 -4,4"/>
<!-- paper -->
<g id="node1" class="node">
<title>paper</title>
<text text-anchor="middle" x="226.5" y="-14.3" font-family="Times,serif" font-size="14.00">paper</text>
</g>
<!-- docs -->
<g id="node2" class="node">
<title>docs</title>
<text text-anchor="middle" x="262.5" y="-86.3" font-family="Times,serif" font-size="14.00">docs</text>
</g>
<!-- paper&#45;&gt;docs -->
<g id="edge1" class="edge">
<title>paper&#45;&gt;docs</title>
<path fill="none" stroke="black" d="M235.4,-36.3C240.98,-47.15 248.14,-61.08 253.7,-71.9"/>
</g>
<!-- project -->
<g id="node3" class="node">
<title>project</title>
<text text-anchor="middle" x="406.5" y="-158.3" font-family="Times,serif" font-size="14.00">project</text>
</g>
<!-- docs&#45;&gt;project -->
<g id="edge2" class="edge">
<title>docs&#45;&gt;project</title>
<path fill="none" stroke="black" d="M289.59,-104.17C315,-116.52 352.86,-134.92 378.55,-147.42"/>
</g>
<!-- talk -->
<g id="node4" class="node">
<title>talk</title>
<text text-anchor="middle" x="298.5" y="-14.3" font-family="Times,serif" font-size="14.00">talk</text>
</g>
<!-- talk&#45;&gt;docs -->
<g id="edge3" class="edge">
<title>talk&#45;&gt;docs</title>
<path fill="none" stroke="black" d="M289.6,-36.3C284.02,-47.15 276.86,-61.08 271.3,-71.9"/>
</g>
<!-- thesis -->
<g id="node5" class="node">
<title>thesis</title>
<text text-anchor="middle" x="370.5" y="-14.3" font-family="Times,serif" font-size="14.00">thesis</text>
</g>
<!-- thesis&#45;&gt;docs -->
<g id="edge4" class="edge">
<title>thesis&#45;&gt;docs</title>
<path fill="none" stroke="black" d="M344.08,-36.12C327.34,-46.97 305.78,-60.95 289.02,-71.81"/>
</g>
<!-- 2021&#45;11&#45;05 -->
<g id="node6" class="node">
<title>2021&#45;11&#45;05</title>
<text text-anchor="middle" x="40.5" y="-14.3" font-family="Times,serif" font-size="14.00">2021&#45;11&#45;05</text>
</g>
<!-- data -->
<g id="node7" class="node">
<title>data</title>
<text text-anchor="middle" x="140.5" y="-86.3" font-family="Times,serif" font-size="14.00">data</text>
</g>
<!-- 2021&#45;11&#45;05&#45;&gt;data -->
<g id="edge5" class="edge">
<title>2021&#45;11&#45;05&#45;&gt;data</title>
<path fill="none" stroke="black" d="M64.96,-36.12C80.46,-46.97 100.43,-60.95 115.94,-71.81"/>
</g>
<!-- data&#45;&gt;project -->
<g id="edge6" class="edge">
<title>data&#45;&gt;project</title>
<path fill="none" stroke="black" d="M167.96,-98.23C218.94,-111.64 327.63,-140.24 378.79,-153.71"/>
</g>
<!-- 2021&#45;10&#45;25 -->
<g id="node8" class="node">
<title>2021&#45;10&#45;25</title>
<text text-anchor="middle" x="140.5" y="-14.3" font-family="Times,serif" font-size="14.00">2021&#45;10&#45;25</text>
</g>
<!-- 2021&#45;10&#45;25&#45;&gt;data -->
<g id="edge7" class="edge">
<title>2021&#45;10&#45;25&#45;&gt;data</title>
<path fill="none" stroke="black" d="M140.5,-36.3C140.5,-47.15 140.5,-61.08 140.5,-71.9"/>
</g>
<!-- scripts -->
<g id="node9" class="node">
<title>scripts</title>
<text text-anchor="middle" x="334.5" y="-86.3" font-family="Times,serif" font-size="14.00">scripts</text>
</g>
<!-- scripts&#45;&gt;project -->
<g id="edge8" class="edge">
<title>scripts&#45;&gt;project</title>
<path fill="none" stroke="black" d="M352.3,-108.3C363.46,-119.15 377.79,-133.08 388.91,-143.9"/>
</g>
<!-- src -->
<g id="node10" class="node">
<title>src</title>
<text text-anchor="middle" x="406.5" y="-86.3" font-family="Times,serif" font-size="14.00">src</text>
</g>
<!-- src&#45;&gt;project -->
<g id="edge9" class="edge">
<title>src&#45;&gt;project</title>
<path fill="none" stroke="black" d="M406.5,-108.3C406.5,-119.15 406.5,-133.08 406.5,-143.9"/>
</g>
<!-- bin -->
<g id="node11" class="node">
<title>bin</title>
<text text-anchor="middle" x="478.5" y="-86.3" font-family="Times,serif" font-size="14.00">bin</text>
</g>
<!-- bin&#45;&gt;project -->
<g id="edge10" class="edge">
<title>bin&#45;&gt;project</title>
<path fill="none" stroke="black" d="M460.7,-108.3C449.54,-119.15 435.21,-133.08 424.09,-143.9"/>
</g>
<!-- 2021&#45;10&#45;08 -->
<g id="node12" class="node">
<title>2021&#45;10&#45;08</title>
<text text-anchor="middle" x="503.5" y="-14.3" font-family="Times,serif" font-size="14.00">2021&#45;10&#45;08</text>
</g>
<!-- results -->
<g id="node13" class="node">
<title>results</title>
<text text-anchor="middle" x="550.5" y="-86.3" font-family="Times,serif" font-size="14.00">results</text>
</g>
<!-- 2021&#45;10&#45;08&#45;&gt;results -->
<g id="edge11" class="edge">
<title>2021&#45;10&#45;08&#45;&gt;results</title>
<path fill="none" stroke="black" d="M515.12,-36.3C522.4,-47.15 531.76,-61.08 539.02,-71.9"/>
</g>
<!-- results&#45;&gt;project -->
<g id="edge12" class="edge">
<title>results&#45;&gt;project</title>
<path fill="none" stroke="black" d="M523.41,-104.17C498,-116.52 460.14,-134.92 434.45,-147.42"/>
</g>
<!-- 2021&#45;10&#45;12 -->
<g id="node14" class="node">
<title>2021&#45;10&#45;12</title>
<text text-anchor="middle" x="603.5" y="-14.3" font-family="Times,serif" font-size="14.00">2021&#45;10&#45;12</text>
</g>
<!-- 2021&#45;10&#45;12&#45;&gt;results -->
<g id="edge13" class="edge">
<title>2021&#45;10&#45;12&#45;&gt;results</title>
<path fill="none" stroke="black" d="M590.4,-36.3C582.18,-47.15 571.64,-61.08 563.45,-71.9"/>
</g>
<!-- refs -->
<g id="node15" class="node">
<title>refs</title>
<text text-anchor="middle" x="622.5" y="-86.3" font-family="Times,serif" font-size="14.00">refs</text>
</g>
<!-- refs&#45;&gt;project -->
<g id="edge14" class="edge">
<title>refs&#45;&gt;project</title>
<path fill="none" stroke="black" d="M595.17,-104.44C592.27,-105.71 589.34,-106.92 586.5,-108 533.68,-128.11 469.78,-145.31 434.08,-154.3"/>
</g>
</g>
</svg>
