<?xml version="1.0" encoding="UTF-8" standalone="no"?>
<!DOCTYPE svg PUBLIC "-//W3C//DTD SVG 1.1//EN"
 "http://www.w3.org/Graphics/SVG/1.1/DTD/svg11.dtd">
<!-- Generated by graphviz version 2.49.3 (20211023.0002)
 -->
<!-- Pages: 1 -->
<svg width="388pt" height="260pt"
 viewBox="0.00 0.00 388.00 260.00" xmlns="http://www.w3.org/2000/svg" xmlns:xlink="http://www.w3.org/1999/xlink">
<g id="graph0" class="graph" transform="scale(1 1) rotate(0) translate(4 256)">
<polygon fill="white" stroke="transparent" points="-4,4 -4,-256 384,-256 384,4 -4,4"/>
<!-- version 1 -->
<g id="node1" class="node">
<title>version 1</title>
<polygon fill="none" stroke="black" points="68,-144 0,-144 0,-108 68,-108 68,-144"/>
<text text-anchor="middle" x="34" y="-122.3" font-family="Times,serif" font-size="14.00">version 1</text>
</g>
<!-- your version 2 -->
<g id="node2" class="node">
<title>your version 2</title>
<polygon fill="none" stroke="black" points="368.5,-252 271.5,-252 271.5,-216 368.5,-216 368.5,-252"/>
<text text-anchor="middle" x="320" y="-230.3" font-family="Times,serif" font-size="14.00">your version 2</text>
</g>
<!-- version 1&#45;&gt;your version 2 -->
<g id="edge1" class="edge">
<title>version 1&#45;&gt;your version 2</title>
<path fill="none" stroke="black" d="M45,-144.29C56.52,-163.41 77.34,-192.61 104,-207 152.37,-233.12 215.57,-238.22 260.91,-237.78"/>
<polygon fill="none" stroke="black" points="261.23,-241.28 271.16,-237.59 261.1,-234.28 261.23,-241.28"/>
</g>
<!-- version 1 person 1 -->
<g id="node3" class="node">
<title>version 1 person 1</title>
<polygon fill="none" stroke="black" points="224,-198 104,-198 104,-162 224,-162 224,-198"/>
<text text-anchor="middle" x="164" y="-176.3" font-family="Times,serif" font-size="14.00">version 1 person 1</text>
</g>
<!-- version 1&#45;&gt;version 1 person 1 -->
<g id="edge2" class="edge">
<title>version 1&#45;&gt;version 1 person 1</title>
<path fill="none" stroke="black" d="M68.3,-140.05C81.3,-145.53 96.52,-151.95 110.91,-158.02"/>
<polygon fill="none" stroke="black" points="109.64,-161.29 120.21,-161.95 112.36,-154.84 109.64,-161.29"/>
</g>
<!-- version 1 person 2 -->
<g id="node5" class="node">
<title>version 1 person 2</title>
<polygon fill="none" stroke="black" points="224,-144 104,-144 104,-108 224,-108 224,-144"/>
<text text-anchor="middle" x="164" y="-122.3" font-family="Times,serif" font-size="14.00">version 1 person 2</text>
</g>
<!-- version 1&#45;&gt;version 1 person 2 -->
<g id="edge4" class="edge">
<title>version 1&#45;&gt;version 1 person 2</title>
<path fill="none" stroke="black" d="M68.3,-126C76.07,-126 84.63,-126 93.34,-126"/>
<polygon fill="none" stroke="black" points="93.59,-129.5 103.59,-126 93.59,-122.5 93.59,-129.5"/>
</g>
<!-- version 1 person 3 -->
<g id="node7" class="node">
<title>version 1 person 3</title>
<polygon fill="none" stroke="black" points="224,-90 104,-90 104,-54 224,-54 224,-90"/>
<text text-anchor="middle" x="164" y="-68.3" font-family="Times,serif" font-size="14.00">version 1 person 3</text>
</g>
<!-- version 1&#45;&gt;version 1 person 3 -->
<g id="edge6" class="edge">
<title>version 1&#45;&gt;version 1 person 3</title>
<path fill="none" stroke="black" d="M68.3,-111.95C81.3,-106.47 96.52,-100.05 110.91,-93.98"/>
<polygon fill="none" stroke="black" points="112.36,-97.16 120.21,-90.05 109.64,-90.71 112.36,-97.16"/>
</g>
<!-- version 1 person 4 -->
<g id="node9" class="node">
<title>version 1 person 4</title>
<polygon fill="none" stroke="black" points="224,-36 104,-36 104,0 224,0 224,-36"/>
<text text-anchor="middle" x="164" y="-14.3" font-family="Times,serif" font-size="14.00">version 1 person 4</text>
</g>
<!-- version 1&#45;&gt;version 1 person 4 -->
<g id="edge8" class="edge">
<title>version 1&#45;&gt;version 1 person 4</title>
<path fill="none" stroke="black" d="M46.88,-107.89C59.36,-90.01 80.42,-62.82 104,-45 105.62,-43.78 107.3,-42.59 109.03,-41.45"/>
<polygon fill="none" stroke="black" points="111.23,-44.21 117.99,-36.05 107.62,-38.21 111.23,-44.21"/>
</g>
<!-- version 2 person 1 -->
<g id="node4" class="node">
<title>version 2 person 1</title>
<polygon fill="none" stroke="black" points="380,-198 260,-198 260,-162 380,-162 380,-198"/>
<text text-anchor="middle" x="320" y="-176.3" font-family="Times,serif" font-size="14.00">version 2 person 1</text>
</g>
<!-- version 1 person 1&#45;&gt;version 2 person 1 -->
<g id="edge3" class="edge">
<title>version 1 person 1&#45;&gt;version 2 person 1</title>
<path fill="none" stroke="black" d="M224.1,-180C232.42,-180 241.04,-180 249.53,-180"/>
<polygon fill="none" stroke="black" points="249.8,-183.5 259.8,-180 249.8,-176.5 249.8,-183.5"/>
</g>
<!-- version 2 person 2 -->
<g id="node6" class="node">
<title>version 2 person 2</title>
<polygon fill="none" stroke="black" points="380,-144 260,-144 260,-108 380,-108 380,-144"/>
<text text-anchor="middle" x="320" y="-122.3" font-family="Times,serif" font-size="14.00">version 2 person 2</text>
</g>
<!-- version 1 person 2&#45;&gt;version 2 person 2 -->
<g id="edge5" class="edge">
<title>version 1 person 2&#45;&gt;version 2 person 2</title>
<path fill="none" stroke="black" d="M224.1,-126C232.42,-126 241.04,-126 249.53,-126"/>
<polygon fill="none" stroke="black" points="249.8,-129.5 259.8,-126 249.8,-122.5 249.8,-129.5"/>
</g>
<!-- version 2 person 3 -->
<g id="node8" class="node">
<title>version 2 person 3</title>
<polygon fill="none" stroke="black" points="380,-90 260,-90 260,-54 380,-54 380,-90"/>
<text text-anchor="middle" x="320" y="-68.3" font-family="Times,serif" font-size="14.00">version 2 person 3</text>
</g>
<!-- version 1 person 3&#45;&gt;version 2 person 3 -->
<g id="edge7" class="edge">
<title>version 1 person 3&#45;&gt;version 2 person 3</title>
<path fill="none" stroke="black" d="M224.1,-72C232.42,-72 241.04,-72 249.53,-72"/>
<polygon fill="none" stroke="black" points="249.8,-75.5 259.8,-72 249.8,-68.5 249.8,-75.5"/>
</g>
<!-- version 2 person 4 -->
<g id="node10" class="node">
<title>version 2 person 4</title>
<polygon fill="none" stroke="black" points="380,-36 260,-36 260,0 380,0 380,-36"/>
<text text-anchor="middle" x="320" y="-14.3" font-family="Times,serif" font-size="14.00">version 2 person 4</text>
</g>
<!-- version 1 person 4&#45;&gt;version 2 person 4 -->
<g id="edge9" class="edge">
<title>version 1 person 4&#45;&gt;version 2 person 4</title>
<path fill="none" stroke="black" d="M224.1,-18C232.42,-18 241.04,-18 249.53,-18"/>
<polygon fill="none" stroke="black" points="249.8,-21.5 259.8,-18 249.8,-14.5 249.8,-21.5"/>
</g>
</g>
</svg>
